<svg width="162" height="38" viewBox="0 0 162 38" fill="none" xmlns="http://www.w3.org/2000/svg">
<path d="M10.6834 22.772C10.6834 22.0854 10.4419 21.5603 9.95903 21.1968C9.47612 20.8252 8.60688 20.4374 7.35131 20.0335C6.09575 19.6215 5.10175 19.2176 4.36935 18.8218C2.37332 17.7393 1.3753 16.2812 1.3753 14.4474C1.3753 13.4941 1.6409 12.6459 2.1721 11.9028C2.71134 11.1515 3.47998 10.5658 4.47799 10.1457C5.48406 9.72566 6.61085 9.51562 7.85836 9.51562C9.11392 9.51562 10.2327 9.74585 11.2146 10.2063C12.1965 10.6587 12.9571 11.3009 13.4963 12.133C14.0436 12.965 14.3173 13.9102 14.3173 14.9684H10.6954C10.6954 14.1606 10.4419 13.5346 9.93487 13.0902C9.42782 12.6379 8.71554 12.4117 7.79799 12.4117C6.91268 12.4117 6.22452 12.6015 5.73355 12.9812C5.24261 13.3528 4.99711 13.8456 4.99711 14.4595C4.99711 15.033 5.28284 15.5137 5.85429 15.9015C6.43379 16.2892 7.28288 16.6528 8.40164 16.992C10.462 17.614 11.9631 18.3855 12.9048 19.3064C13.8464 20.2274 14.3173 21.3745 14.3173 22.7478C14.3173 24.2745 13.7418 25.4742 12.5909 26.3467C11.4399 27.2111 9.89059 27.6433 7.94288 27.6433C6.59074 27.6433 5.35931 27.3967 4.24861 26.904C3.13792 26.4033 2.28881 25.7206 1.70127 24.8562C1.12178 23.9918 0.832031 22.9901 0.832031 21.8511H4.46594C4.46594 23.7979 5.62492 24.7714 7.94288 24.7714C8.80406 24.7714 9.47612 24.5977 9.95903 24.2503C10.4419 23.8949 10.6834 23.4021 10.6834 22.772ZM16.7801 27.4008V9.75797H22.1887C23.734 9.75797 25.1143 10.1094 26.3296 10.8122C27.5529 11.5069 28.5069 12.5005 29.191 13.7931C29.875 15.0775 30.217 16.5397 30.217 18.1795V18.9914C30.217 20.6313 29.8791 22.0894 29.2031 23.3658C28.535 24.6421 27.5892 25.6317 26.3659 26.3345C25.1425 27.0374 23.7622 27.3928 22.2249 27.4008H16.7801ZM20.4019 12.7025V24.4806H22.1525C23.569 24.4806 24.6516 24.016 25.4 23.0871C26.1485 22.1581 26.531 20.8292 26.5469 19.1004V18.1674C26.5469 16.3741 26.1768 15.0169 25.4363 14.096C24.6958 13.167 23.6133 12.7025 22.1887 12.7025H20.4019Z" fill="#15114E"/>
<path d="M52.5664 20.7249C52.5664 19.4243 52.8157 18.2651 53.3149 17.2472C53.814 16.2294 54.5302 15.4418 55.4639 14.8843C56.4055 14.327 57.4959 14.0483 58.7355 14.0483C60.4982 14.0483 61.9348 14.5895 63.0454 15.672C64.1642 16.7545 64.788 18.2247 64.9168 20.0827L64.941 20.9794C64.941 22.9909 64.3816 24.6065 63.2628 25.8263C62.144 27.0381 60.643 27.6441 58.7598 27.6441C56.8763 27.6441 55.3711 27.0381 54.2444 25.8263C53.1258 24.6146 52.5664 22.9666 52.5664 20.8824V20.7249ZM56.0555 20.9794C56.0555 22.2234 56.2888 23.1766 56.7555 23.8391C57.2224 24.4934 57.8905 24.8206 58.7598 24.8206C59.6048 24.8206 60.2646 24.4974 60.7396 23.8512C61.2145 23.1969 61.4519 22.1548 61.4519 20.7249C61.4519 19.5051 61.2145 18.56 60.7396 17.8894C60.2646 17.219 59.5968 16.8837 58.7355 16.8837C57.8823 16.8837 57.2224 17.219 56.7555 17.8894C56.2888 18.5519 56.0555 19.5818 56.0555 20.9794ZM70.3012 14.2906L70.4098 15.8053C71.3435 14.6339 72.5949 14.0483 74.1644 14.0483C75.5488 14.0483 76.579 14.4562 77.255 15.2721C77.9311 16.088 78.2773 17.3078 78.2932 18.9316V27.4016H74.8044V19.0164C74.8044 18.2732 74.6432 17.736 74.3213 17.4048C73.9993 17.0655 73.4641 16.8958 72.7157 16.8958C71.7339 16.8958 70.9973 17.3159 70.5064 18.156V27.4016H67.0174V14.2906H70.3012ZM84.1608 14.2906L84.2695 15.8053C85.2028 14.6339 86.4545 14.0483 88.0241 14.0483C89.4084 14.0483 90.4386 14.4562 91.1147 15.2721C91.7907 16.088 92.1366 17.3078 92.1529 18.9316V27.4016H88.6638V19.0164C88.6638 18.2732 88.5028 17.736 88.1809 17.4048C87.859 17.0655 87.3238 16.8958 86.5753 16.8958C85.5933 16.8958 84.8569 17.3159 84.3658 18.156V27.4016H80.877V14.2906H84.1608ZM100.821 27.6441C98.9056 27.6441 97.3441 27.0541 96.1369 25.8749C94.9375 24.6954 94.3379 23.1241 94.3379 21.1611V20.8219C94.3379 19.5051 94.5916 18.3297 95.0985 17.2957C95.6056 16.2536 96.3218 15.4539 97.2475 14.8965C98.1811 14.331 99.2435 14.0483 100.435 14.0483C102.222 14.0483 103.626 14.6137 104.648 15.7447C105.678 16.8756 106.193 18.4792 106.193 20.5553V21.9851H97.8754C97.9879 22.8414 98.3261 23.5281 98.8894 24.0451C99.4609 24.5621 100.181 24.8206 101.05 24.8206C102.394 24.8206 103.445 24.3318 104.201 23.3544L105.916 25.281C105.393 26.0243 104.684 26.6059 103.791 27.026C102.898 27.438 101.908 27.6441 100.821 27.6441ZM100.423 16.8837C99.7305 16.8837 99.167 17.118 98.7325 17.5865C98.306 18.0551 98.0323 18.7255 97.9115 19.598H102.765V19.3193C102.749 18.5438 102.539 17.946 102.137 17.5259C101.735 17.0978 101.163 16.8837 100.423 16.8837ZM113.618 24.8206C114.262 24.8206 114.785 24.6429 115.188 24.2874C115.59 23.932 115.799 23.4594 115.815 22.8697H119.087C119.079 23.7583 118.838 24.5742 118.363 25.3174C117.888 26.0524 117.236 26.6261 116.407 27.0381C115.586 27.4419 114.677 27.6441 113.679 27.6441C111.811 27.6441 110.338 27.0503 109.26 25.8627C108.181 24.6671 107.642 23.0191 107.642 20.9188V20.6885C107.642 18.669 108.177 17.0574 109.248 15.8537C110.318 14.6501 111.787 14.0483 113.654 14.0483C115.288 14.0483 116.596 14.5168 117.578 15.4539C118.568 16.3829 119.071 17.6229 119.087 19.1739H115.815C115.799 18.4953 115.59 17.946 115.188 17.5259C114.785 17.0978 114.254 16.8837 113.594 16.8837C112.781 16.8837 112.165 17.1826 111.747 17.7804C111.336 18.3701 111.131 19.3314 111.131 20.6643V21.0279C111.131 22.3769 111.336 23.3463 111.747 23.936C112.157 24.5257 112.781 24.8206 113.618 24.8206ZM125.256 11.0674V14.2906H127.49V16.8595H125.256V23.4028C125.256 23.8875 125.349 24.2349 125.534 24.4449C125.719 24.655 126.073 24.76 126.596 24.76C126.983 24.76 127.325 24.7317 127.623 24.6752V27.3289C126.938 27.5388 126.234 27.6441 125.51 27.6441C123.063 27.6441 121.816 26.404 121.767 23.9239V16.8595H119.86V14.2906H121.767V11.0674H125.256ZM129.615 25.6809C129.615 25.1235 129.8 24.6711 130.17 24.3238C130.548 23.9764 131.019 23.8027 131.582 23.8027C132.154 23.8027 132.625 23.9764 132.995 24.3238C133.373 24.6711 133.562 25.1235 133.562 25.6809C133.562 26.2303 133.377 26.6785 133.007 27.026C132.637 27.3651 132.162 27.535 131.582 27.535C131.011 27.535 130.54 27.3651 130.17 27.026C129.8 26.6785 129.615 26.2303 129.615 25.6809ZM141.518 23.1241L143.945 14.2906H147.591L143.184 27.4016H139.852L135.446 14.2906H139.092L141.518 23.1241ZM152.348 14.2906L152.456 15.8053C153.39 14.6339 154.641 14.0483 156.211 14.0483C157.595 14.0483 158.625 14.4562 159.301 15.2721C159.978 16.088 160.323 17.3078 160.34 18.9316V27.4016H156.851V19.0164C156.851 18.2732 156.69 17.736 156.368 17.4048C156.046 17.0655 155.511 16.8958 154.762 16.8958C153.78 16.8958 153.044 17.3159 152.553 18.156V27.4016H149.064V14.2906H152.348Z" fill="#15114E"/>
<path d="M43.9182 10.3398C39.793 10.3398 36.4492 13.7541 36.4492 17.9657C36.4492 22.1773 39.793 25.5915 43.9182 25.5915" stroke="#15114E" stroke-width="3"/>
<path d="M35.8059 20.1631C37.2994 20.1631 38.5101 19.1794 38.5101 17.9658C38.5101 16.7523 37.2994 15.7686 35.8059 15.7686C34.3123 15.7686 33.1016 16.7523 33.1016 17.9658C33.1016 19.1794 34.3123 20.1631 35.8059 20.1631Z" fill="white"/>
<path d="M47.8134 12.9824C49.3193 12.3412 50.0222 10.5962 49.3834 9.08475C48.7446 7.5733 47.006 6.8678 45.5001 7.50897C43.9942 8.15015 43.2913 9.8952 43.9301 11.4066C44.5689 12.9181 46.3075 13.6236 47.8134 12.9824Z" stroke="#349EFF" stroke-width="3"/>
<path d="M37.5088 20.7373C39.0146 20.0961 39.7175 18.3511 39.0787 16.8396C38.4399 15.3282 36.7013 14.6227 35.1954 15.2639C33.6895 15.905 32.9866 17.6501 33.6254 19.1615C34.2642 20.673 36.0029 21.3785 37.5088 20.7373Z" stroke="#00D796" stroke-width="3"/>
<path d="M47.7794 28.3353C49.3429 27.8527 50.2206 26.1893 49.7397 24.62C49.2588 23.0507 47.6015 22.1698 46.038 22.6525C44.4745 23.1351 43.5969 24.7985 44.0777 26.3678C44.5586 27.9371 46.2159 28.818 47.7794 28.3353Z" stroke="#FF3346" stroke-width="3"/>
</svg>
