<svg width="40" height="40" viewBox="0 0 40 40" fill="none" xmlns="http://www.w3.org/2000/svg">
<circle cx="20" cy="20" r="20" fill="#EAF0F5"/>
<g clip-path="url(#clip0_2660_61137)">
<path d="M33.2478 14.5623C32.9879 14.2714 32.673 14.0344 32.3213 13.8649C31.9696 13.6954 31.5878 13.5967 31.1978 13.5744C30.8078 13.5522 30.4173 13.6068 30.0484 13.7351C29.6796 13.8635 29.3397 14.063 29.0482 14.3225C29.0482 14.3225 28.3943 14.9043 27.3817 15.8062C27.242 15.1056 26.8509 14.4801 26.2816 14.0469C25.7123 13.6138 25.004 13.4029 24.2899 13.4539C24.793 13.0354 25.2835 12.6274 25.7409 12.2473C26.347 11.7435 26.7276 11.0202 26.7992 10.2364C26.8707 9.45264 26.6271 8.67263 26.1221 8.06797C25.8721 7.76858 25.5654 7.52125 25.2195 7.3401C24.8737 7.15895 24.4954 7.04754 24.1064 7.01222C23.3208 6.94089 22.5389 7.18384 21.9328 7.68761C21.9328 7.68761 18.4761 10.5608 15.0191 13.4469C13.2883 14.8922 11.5574 16.3407 10.2594 17.4343C7.28784 19.9376 7.04491 20.1423 7.04491 21.556C7.04555 22.2502 7.29042 22.9222 7.73683 23.4547C8.18324 23.9872 8.80286 24.3465 9.48762 24.4699C6.56449 26.7999 6.375 27.0069 6.375 28.4122C6.37499 28.9953 6.54716 29.5654 6.87001 30.0514C7.19286 30.5375 7.65208 30.9178 8.19033 31.145C8.72858 31.3723 9.322 31.4362 9.89648 31.329C10.471 31.2218 11.0011 30.9481 11.4206 30.5421C11.7806 30.2369 13.1478 29.1451 14.9939 27.6809C14.9692 27.8823 14.9583 28.0851 14.9611 28.288C14.9611 28.8863 15.1424 29.4707 15.4812 29.9644C15.8201 30.4581 16.3006 30.8381 16.8598 31.0545C17.419 31.2709 18.0307 31.3136 18.6146 31.1769C19.1985 31.0403 19.7274 30.7308 20.1319 30.2889C21.0204 29.4381 28.4405 22.8145 33.0074 18.7518C33.5962 18.228 33.9523 17.4924 33.9974 16.7067C34.0424 15.921 33.7728 15.1496 33.2478 14.5623Z" fill="#EAF0F5"/>
<path d="M29.7054 12.6C29.6529 12.6474 29.5837 12.6722 29.513 12.6687C29.4423 12.6653 29.3758 12.634 29.3282 12.5816L28.8542 12.0589C28.8067 12.0065 28.7819 11.9373 28.7855 11.8667C28.789 11.796 28.8206 11.7297 28.8732 11.6822C28.9257 11.6347 28.9951 11.6101 29.0659 11.6136C29.1367 11.6172 29.2032 11.6486 29.2508 11.7011L29.7248 12.2238C29.7722 12.2763 29.7968 12.3454 29.7932 12.4159C29.7895 12.4865 29.7579 12.5527 29.7054 12.6Z" fill="#7CB2FF"/>
<path d="M30.9788 14.0072C30.9264 14.0547 30.8572 14.0794 30.7864 14.076C30.7157 14.0725 30.6492 14.0412 30.6017 13.9889L30.1277 13.4661C30.0801 13.4137 30.0554 13.3445 30.0589 13.2739C30.0625 13.2032 30.094 13.1369 30.1466 13.0894C30.1992 13.042 30.2685 13.0173 30.3393 13.0208C30.4101 13.0244 30.4767 13.0558 30.5242 13.1083L30.9982 13.631C31.0457 13.6835 31.0702 13.7526 31.0666 13.8231C31.063 13.8937 31.0314 13.9599 30.9788 14.0072Z" fill="#7CB2FF"/>
<path d="M31.0774 12.1674L30.552 12.6415C30.526 12.6651 30.4957 12.6834 30.4626 12.6953C30.4296 12.7072 30.3945 12.7125 30.3594 12.7108C30.3243 12.7092 30.2899 12.7006 30.2582 12.6856C30.2264 12.6707 30.1979 12.6496 30.1744 12.6236C30.1508 12.5976 30.1326 12.5672 30.1209 12.5342C30.1091 12.5012 30.104 12.4662 30.1058 12.4312C30.1077 12.3962 30.1164 12.3619 30.1316 12.3303C30.1468 12.2987 30.168 12.2704 30.1942 12.247L30.7196 11.7728C30.7721 11.7255 30.8412 11.7009 30.9118 11.7044C30.9825 11.708 31.0488 11.7393 31.0962 11.7917C31.1437 11.844 31.1683 11.913 31.1648 11.9834C31.1613 12.0539 31.1298 12.12 31.0774 12.1674Z" fill="#7CB2FF"/>
<path d="M29.6623 13.4438L29.1369 13.9179C29.111 13.9413 29.0806 13.9594 29.0476 13.9711C29.0146 13.9829 28.9797 13.988 28.9447 13.9863C28.9097 13.9845 28.8754 13.9759 28.8438 13.961C28.8122 13.946 28.7838 13.9249 28.7603 13.899C28.7368 13.8731 28.7187 13.8429 28.7069 13.81C28.6951 13.7771 28.69 13.7422 28.6917 13.7073C28.6935 13.6724 28.7021 13.6382 28.7171 13.6066C28.7321 13.5751 28.7532 13.5468 28.7792 13.5233L29.3046 13.0492C29.3305 13.0258 29.3609 13.0077 29.3939 12.9959C29.4268 12.9842 29.4618 12.9791 29.4968 12.9808C29.5318 12.9826 29.566 12.9912 29.5977 13.0061C29.6293 13.0211 29.6577 13.0421 29.6812 13.068C29.7047 13.094 29.7228 13.1242 29.7346 13.1571C29.7463 13.19 29.7515 13.2249 29.7497 13.2598C29.748 13.2947 29.7393 13.3289 29.7243 13.3605C29.7093 13.392 29.6882 13.4203 29.6623 13.4438L29.6623 13.4438Z" fill="#7CB2FF"/>
<path d="M6.74873 15.5379C6.70551 15.5721 6.65049 15.5878 6.59567 15.5817C6.54085 15.5756 6.49067 15.5482 6.45607 15.5053L6.06404 15.0729C6.04299 15.0548 6.02605 15.0323 6.01434 15.0072C6.00262 14.982 5.99641 14.9546 5.99611 14.9268C5.9958 14.899 6.00141 14.8715 6.01256 14.8461C6.02372 14.8206 6.04016 14.7978 6.06081 14.7792C6.08145 14.7606 6.10582 14.7465 6.13232 14.738C6.15881 14.7295 6.18682 14.7266 6.21448 14.7297C6.24215 14.7328 6.26885 14.7417 6.29281 14.7558C6.31676 14.77 6.33744 14.789 6.35346 14.8118L6.74552 15.2441C6.7848 15.2828 6.80719 15.3353 6.80779 15.3903C6.8084 15.4454 6.78717 15.4984 6.74873 15.5379Z" fill="#7CB2FF"/>
<path d="M7.80346 16.701C7.76024 16.7352 7.70522 16.751 7.6504 16.7449C7.59557 16.7387 7.54539 16.7113 7.5108 16.6684L7.11876 16.2361C7.0977 16.2179 7.08076 16.1955 7.06904 16.1703C7.05732 16.1451 7.0511 16.1177 7.05079 16.0899C7.05048 16.0621 7.05609 16.0346 7.06725 16.0092C7.0784 15.9837 7.09485 15.9609 7.11549 15.9423C7.13614 15.9236 7.16052 15.9096 7.18702 15.9011C7.21351 15.8925 7.24153 15.8897 7.2692 15.8928C7.29687 15.8959 7.32356 15.9048 7.34752 15.919C7.37148 15.9331 7.39216 15.9522 7.40818 15.9749L7.80023 16.4072C7.83951 16.4459 7.8619 16.4984 7.8625 16.5535C7.86311 16.6085 7.84188 16.6615 7.80346 16.701Z" fill="#7CB2FF"/>
<path d="M7.78818 15.2642L7.40475 15.6102C7.36039 15.6414 7.30615 15.6552 7.25224 15.6492C7.19834 15.6432 7.14849 15.6178 7.1121 15.5776C7.07572 15.5375 7.0553 15.4855 7.0547 15.4314C7.0541 15.3773 7.07336 15.3248 7.10885 15.2839L7.49232 14.9378C7.53668 14.9067 7.59093 14.8928 7.64483 14.8988C7.69874 14.9048 7.74858 14.9303 7.78497 14.9704C7.82136 15.0106 7.84177 15.0626 7.84237 15.1167C7.84297 15.1708 7.82371 15.2232 7.78822 15.2642H7.78818Z" fill="#7CB2FF"/>
<path d="M6.75691 16.1958L6.37349 16.5418C6.32913 16.573 6.27489 16.5868 6.22098 16.5808C6.16708 16.5748 6.11724 16.5494 6.08086 16.5092C6.04447 16.4691 6.02405 16.4171 6.02345 16.363C6.02285 16.3089 6.0421 16.2564 6.07758 16.2155L6.46105 15.8695C6.50542 15.8383 6.55966 15.8245 6.61356 15.8305C6.66747 15.8365 6.71731 15.862 6.75369 15.9021C6.79007 15.9422 6.81048 15.9942 6.81107 16.0483C6.81167 16.1024 6.79241 16.1549 6.75691 16.1958Z" fill="#7CB2FF"/>
<path d="M30.1129 25.255C30.0808 25.2841 30.0385 25.2992 29.9952 25.2971C29.9519 25.295 29.9113 25.2758 29.8822 25.2438L29.5923 24.9241C29.5635 24.8919 29.5487 24.8498 29.551 24.8068C29.5533 24.7637 29.5726 24.7234 29.6046 24.6945C29.6366 24.6656 29.6788 24.6505 29.7219 24.6525C29.765 24.6545 29.8056 24.6735 29.8348 24.7052L30.1248 25.0249C30.1538 25.057 30.1688 25.0993 30.1666 25.1424C30.1644 25.1856 30.145 25.2261 30.1129 25.255Z" fill="#7CB2FF"/>
<path d="M30.8942 26.1154C30.8621 26.1444 30.8198 26.1596 30.7765 26.1575C30.7332 26.1554 30.6926 26.1362 30.6635 26.1042L30.3735 25.7845C30.3448 25.7523 30.33 25.7101 30.3323 25.6671C30.3346 25.6241 30.3538 25.5837 30.3859 25.5548C30.4179 25.526 30.4601 25.5109 30.5032 25.5129C30.5463 25.5149 30.5869 25.5338 30.6161 25.5656L30.906 25.8853C30.935 25.9174 30.9501 25.9597 30.9479 26.0028C30.9456 26.046 30.9263 26.0865 30.8942 26.1154Z" fill="#7CB2FF"/>
<path d="M30.9533 24.9904L30.6319 25.2804C30.616 25.2948 30.5974 25.3058 30.5773 25.313C30.5571 25.3202 30.5357 25.3233 30.5143 25.3223C30.4929 25.3212 30.472 25.3159 30.4526 25.3068C30.4332 25.2976 30.4159 25.2848 30.4015 25.2689C30.3872 25.2531 30.3761 25.2345 30.3689 25.2144C30.3617 25.1943 30.3585 25.173 30.3596 25.1516C30.3607 25.1303 30.3659 25.1094 30.3751 25.09C30.3843 25.0707 30.3972 25.0534 30.4131 25.0391L30.7344 24.7491C30.7665 24.7201 30.8088 24.7051 30.852 24.7072C30.8952 24.7094 30.9358 24.7286 30.9648 24.7606C30.9938 24.7926 31.0089 24.8348 31.0067 24.8779C31.0046 24.921 30.9853 24.9615 30.9533 24.9904Z" fill="#7CB2FF"/>
<path d="M30.0899 25.7705L29.7686 26.0605C29.7527 26.0748 29.7342 26.0859 29.714 26.093C29.6938 26.1002 29.6724 26.1034 29.651 26.1023C29.6296 26.1012 29.6087 26.096 29.5893 26.0868C29.57 26.0777 29.5526 26.0648 29.5382 26.0489C29.5239 26.0331 29.5128 26.0146 29.5056 25.9945C29.4984 25.9743 29.4952 25.953 29.4963 25.9317C29.4974 25.9103 29.5026 25.8894 29.5118 25.8701C29.521 25.8508 29.5339 25.8335 29.5498 25.8191L29.8711 25.5291C29.887 25.5146 29.9056 25.5034 29.9258 25.4961C29.946 25.4888 29.9675 25.4855 29.989 25.4865C30.0105 25.4875 30.0316 25.4927 30.051 25.5019C30.0705 25.5111 30.0879 25.524 30.1023 25.5399C30.1168 25.5558 30.1279 25.5744 30.1351 25.5947C30.1423 25.6149 30.1454 25.6363 30.1442 25.6578C30.1431 25.6792 30.1377 25.7002 30.1284 25.7195C30.1191 25.7389 30.106 25.7562 30.0899 25.7705Z" fill="#7CB2FF"/>
<path d="M12.808 29.4662L13.2101 29.3835C13.2505 29.3747 13.2866 29.3524 13.3125 29.3202C13.3384 29.2881 13.3525 29.2481 13.3525 29.2069C13.3525 29.1657 13.3384 29.1257 13.3125 29.0936C13.2866 29.0614 13.2505 29.0391 13.2101 29.0302L12.808 28.9475C12.6129 28.9064 12.4343 28.8088 12.2945 28.6669C12.1546 28.5251 12.0598 28.3453 12.0218 28.15L11.9402 27.7421C11.9327 27.7015 11.9111 27.6649 11.8793 27.6385C11.8475 27.6121 11.8075 27.5977 11.7661 27.5977C11.7247 27.5977 11.6847 27.6121 11.6529 27.6385C11.6211 27.6649 11.5995 27.7015 11.592 27.7421L11.5104 28.15C11.4724 28.3453 11.3776 28.5251 11.2377 28.6669C11.0979 28.8088 10.9193 28.9064 10.7242 28.9475L10.3221 29.0302C10.2817 29.0391 10.2456 29.0614 10.2197 29.0936C10.1938 29.1257 10.1797 29.1657 10.1797 29.2069C10.1797 29.2481 10.1938 29.2881 10.2197 29.3202C10.2456 29.3524 10.2817 29.3747 10.3221 29.3835L10.7242 29.4662C10.9193 29.5074 11.0979 29.605 11.2377 29.7469C11.3776 29.8887 11.4724 30.0685 11.5104 30.2638L11.592 30.6717C11.5995 30.7123 11.6211 30.7489 11.6529 30.7753C11.6847 30.8017 11.7247 30.8161 11.7661 30.8161C11.8075 30.8161 11.8475 30.8017 11.8793 30.7753C11.9111 30.7489 11.9327 30.7123 11.9402 30.6717L12.0218 30.2638C12.0598 30.0685 12.1546 29.8887 12.2945 29.7469C12.4343 29.605 12.6129 29.5074 12.808 29.4662Z" fill="#FFD875"/>
<path d="M12.8825 10.1691L13.3127 10.0806C13.3559 10.0712 13.3946 10.0473 13.4223 10.0129C13.45 9.97852 13.4651 9.93574 13.4651 9.89163C13.4651 9.84753 13.45 9.80474 13.4223 9.77037C13.3946 9.736 13.3559 9.7121 13.3127 9.70263L12.8825 9.61414C12.6738 9.57009 12.4826 9.46566 12.333 9.31389C12.1834 9.16212 12.0819 8.96973 12.0413 8.76077L11.954 8.32436C11.9459 8.28097 11.9228 8.24178 11.8888 8.21357C11.8548 8.18536 11.8119 8.16992 11.7677 8.16992C11.7235 8.16992 11.6806 8.18536 11.6466 8.21357C11.6125 8.24178 11.5895 8.28097 11.5814 8.32436L11.4941 8.76077C11.4535 8.96973 11.352 9.16212 11.2024 9.31389C11.0528 9.46566 10.8616 9.57009 10.6529 9.61414L10.2227 9.70263C10.1795 9.7121 10.1408 9.736 10.1131 9.77037C10.0854 9.80474 10.0703 9.84753 10.0703 9.89163C10.0703 9.93574 10.0854 9.97852 10.1131 10.0129C10.1408 10.0473 10.1795 10.0712 10.2227 10.0806L10.6529 10.1691C10.8616 10.2132 11.0528 10.3176 11.2024 10.4694C11.352 10.6211 11.4535 10.8135 11.4941 11.0225L11.5814 11.4589C11.5895 11.5023 11.6125 11.5415 11.6466 11.5697C11.6806 11.5979 11.7235 11.6133 11.7677 11.6133C11.8119 11.6133 11.8548 11.5979 11.8888 11.5697C11.9228 11.5415 11.9459 11.5023 11.954 11.4589L12.0413 11.0225C12.0819 10.8135 12.1834 10.6211 12.333 10.4694C12.4826 10.3176 12.6738 10.2132 12.8825 10.1691Z" fill="#FFD875"/>
<path d="M25.1209 33.2198L25.3533 33.172C25.3766 33.1668 25.3975 33.1539 25.4124 33.1354C25.4274 33.1168 25.4356 33.0937 25.4356 33.0698C25.4356 33.046 25.4274 33.0229 25.4124 33.0043C25.3975 32.9858 25.3766 32.9729 25.3533 32.9677L25.1209 32.9199C25.0081 32.8961 24.9048 32.8397 24.824 32.7577C24.7431 32.6757 24.6883 32.5718 24.6664 32.4589L24.6192 32.2231C24.6149 32.1997 24.6024 32.1785 24.584 32.1632C24.5656 32.148 24.5425 32.1396 24.5186 32.1396C24.4947 32.1396 24.4715 32.148 24.4531 32.1632C24.4347 32.1785 24.4223 32.1997 24.4179 32.2231L24.3708 32.4589C24.3488 32.5718 24.294 32.6757 24.2132 32.7577C24.1323 32.8397 24.0291 32.8961 23.9163 32.9199L23.6839 32.9677C23.6605 32.9729 23.6397 32.9858 23.6247 33.0043C23.6097 33.0229 23.6016 33.046 23.6016 33.0698C23.6016 33.0937 23.6097 33.1168 23.6247 33.1354C23.6397 33.1539 23.6605 33.1668 23.6839 33.172L23.9163 33.2198C24.0291 33.2436 24.1323 33.3 24.2132 33.382C24.294 33.464 24.3488 33.5679 24.3708 33.6808L24.4179 33.9166C24.4223 33.94 24.4347 33.9612 24.4531 33.9765C24.4715 33.9917 24.4947 34 24.5186 34C24.5425 34 24.5656 33.9917 24.584 33.9765C24.6024 33.9612 24.6149 33.94 24.6192 33.9166L24.6664 33.6808C24.6883 33.5679 24.7432 33.464 24.824 33.382C24.9048 33.3 25.0081 33.2436 25.1209 33.2198Z" fill="#FFD875"/>
<path d="M20.0006 27.5975L10.4844 18.1211H29.5169L20.0006 27.5975Z" fill="#F9CD6B"/>
<path d="M20.0023 27.5983L16.7812 18.1211H23.2234L20.0023 27.5983Z" fill="#F29E25"/>
<path d="M29.5169 18.1212H10.4844L13.6973 12.7588H26.3031L29.5169 18.1212Z" fill="#FFB12F"/>
<path d="M29.5199 18.1212H23.1758L26.3479 12.7588L29.5199 18.1212Z" fill="#FFD875"/>
<path d="M23.1723 18.1212H16.8281L20.0002 12.7588L23.1723 18.1212Z" fill="#FFD875"/>
<path d="M16.8285 18.1212H10.4844L13.6565 12.7588L16.8285 18.1212Z" fill="#FFD875"/>
</g>
<defs>
<clipPath id="clip0_2660_61137">
<rect width="28" height="27" fill="white" transform="translate(6 7)"/>
</clipPath>
</defs>
</svg>
