<svg width="639" height="147" viewBox="0 0 639 147" fill="none" xmlns="http://www.w3.org/2000/svg">

  <path d="M41.4844 88.0938C41.4844 85.4375 40.5469 83.4062 38.6719 82C36.7969 80.5625 33.4219 79.0625 28.5469 77.5C23.6719 75.9062 19.8125 74.3438 16.9688 72.8125C9.21875 68.625 5.34375 62.9844 5.34375 55.8906C5.34375 52.2031 6.375 48.9219 8.4375 46.0469C10.5312 43.1406 13.5156 40.875 17.3906 39.25C21.2969 37.625 25.6719 36.8125 30.5156 36.8125C35.3906 36.8125 39.7344 37.7031 43.5469 39.4844C47.3594 41.2344 50.3125 43.7188 52.4062 46.9375C54.5312 50.1562 55.5938 53.8125 55.5938 57.9062H41.5312C41.5312 54.7812 40.5469 52.3594 38.5781 50.6406C36.6094 48.8906 33.8438 48.0156 30.2812 48.0156C26.8438 48.0156 24.1719 48.75 22.2656 50.2188C20.3594 51.6562 19.4062 53.5625 19.4062 55.9375C19.4062 58.1562 20.5156 60.0156 22.7344 61.5156C24.9844 63.0156 28.2812 64.4219 32.625 65.7344C40.625 68.1406 46.4531 71.125 50.1094 74.6875C53.7656 78.25 55.5938 82.6875 55.5938 88C55.5938 93.9062 53.3594 98.5469 48.8906 101.922C44.4219 105.266 38.4062 106.938 30.8438 106.938C25.5938 106.938 20.8125 105.984 16.5 104.078C12.1875 102.141 8.89062 99.5 6.60938 96.1562C4.35938 92.8125 3.23438 88.9375 3.23438 84.5312H17.3438C17.3438 92.0625 21.8438 95.8281 30.8438 95.8281C34.1875 95.8281 36.7969 95.1562 38.6719 93.8125C40.5469 92.4375 41.4844 90.5312 41.4844 88.0938ZM65.1562 106V37.75H86.1562C92.1562 37.75 97.5156 39.1094 102.234 41.8281C106.984 44.5156 110.688 48.3594 113.344 53.3594C116 58.3281 117.328 63.9844 117.328 70.3281V73.4688C117.328 79.8125 116.016 85.4531 113.391 90.3906C110.797 95.3281 107.125 99.1562 102.375 101.875C97.625 104.594 92.2656 105.969 86.2969 106H65.1562ZM79.2188 49.1406V94.7031H86.0156C91.5156 94.7031 95.7188 92.9062 98.625 89.3125C101.531 85.7188 103.016 80.5781 103.078 73.8906V70.2812C103.078 63.3438 101.641 58.0938 98.7656 54.5312C95.8906 50.9375 91.6875 49.1406 86.1562 49.1406H79.2188Z" fill="#15114E"/>
  
  <path d="M208.094 80.1719C208.094 75.1406 209.062 70.6562 211 66.7188C212.938 62.7812 215.719 59.7344 219.344 57.5781C223 55.4219 227.234 54.3438 232.047 54.3438C238.891 54.3438 244.469 56.4375 248.781 60.625C253.125 64.8125 255.547 70.5 256.047 77.6875L256.141 81.1562C256.141 88.9375 253.969 95.1875 249.625 99.9062C245.281 104.594 239.453 106.938 232.141 106.938C224.828 106.938 218.984 104.594 214.609 99.9062C210.266 95.2188 208.094 88.8438 208.094 80.7812V80.1719ZM221.641 81.1562C221.641 85.9688 222.547 89.6562 224.359 92.2188C226.172 94.75 228.766 96.0156 232.141 96.0156C235.422 96.0156 237.984 94.7656 239.828 92.2656C241.672 89.7344 242.594 85.7031 242.594 80.1719C242.594 75.4531 241.672 71.7969 239.828 69.2031C237.984 66.6094 235.391 65.3125 232.047 65.3125C228.734 65.3125 226.172 66.6094 224.359 69.2031C222.547 71.7656 221.641 75.75 221.641 81.1562ZM276.953 55.2812L277.375 61.1406C281 56.6094 285.859 54.3438 291.953 54.3438C297.328 54.3438 301.328 55.9219 303.953 59.0781C306.578 62.2344 307.922 66.9531 307.984 73.2344V106H294.438V73.5625C294.438 70.6875 293.812 68.6094 292.562 67.3281C291.312 66.0156 289.234 65.3594 286.328 65.3594C282.516 65.3594 279.656 66.9844 277.75 70.2344V106H264.203V55.2812H276.953ZM330.766 55.2812L331.188 61.1406C334.812 56.6094 339.672 54.3438 345.766 54.3438C351.141 54.3438 355.141 55.9219 357.766 59.0781C360.391 62.2344 361.734 66.9531 361.797 73.2344V106H348.25V73.5625C348.25 70.6875 347.625 68.6094 346.375 67.3281C345.125 66.0156 343.047 65.3594 340.141 65.3594C336.328 65.3594 333.469 66.9844 331.562 70.2344V106H318.016V55.2812H330.766ZM395.453 106.938C388.016 106.938 381.953 104.656 377.266 100.094C372.609 95.5312 370.281 89.4531 370.281 81.8594V80.5469C370.281 75.4531 371.266 70.9062 373.234 66.9062C375.203 62.875 377.984 59.7812 381.578 57.625C385.203 55.4375 389.328 54.3438 393.953 54.3438C400.891 54.3438 406.344 56.5312 410.312 60.9062C414.312 65.2812 416.312 71.4844 416.312 79.5156V85.0469H384.016C384.453 88.3594 385.766 91.0156 387.953 93.0156C390.172 95.0156 392.969 96.0156 396.344 96.0156C401.562 96.0156 405.641 94.125 408.578 90.3438L415.234 97.7969C413.203 100.672 410.453 102.922 406.984 104.547C403.516 106.141 399.672 106.938 395.453 106.938ZM393.906 65.3125C391.219 65.3125 389.031 66.2188 387.344 68.0312C385.688 69.8438 384.625 72.4375 384.156 75.8125H403V74.7344C402.938 71.7344 402.125 69.4219 400.562 67.7969C399 66.1406 396.781 65.3125 393.906 65.3125ZM445.141 96.0156C447.641 96.0156 449.672 95.3281 451.234 93.9531C452.797 92.5781 453.609 90.75 453.672 88.4688H466.375C466.344 91.9062 465.406 95.0625 463.562 97.9375C461.719 100.781 459.188 103 455.969 104.594C452.781 106.156 449.25 106.938 445.375 106.938C438.125 106.938 432.406 104.641 428.219 100.047C424.031 95.4219 421.938 89.0469 421.938 80.9219V80.0312C421.938 72.2188 424.016 65.9844 428.172 61.3281C432.328 56.6719 438.031 54.3438 445.281 54.3438C451.625 54.3438 456.703 56.1562 460.516 59.7812C464.359 63.375 466.312 68.1719 466.375 74.1719H453.672C453.609 71.5469 452.797 69.4219 451.234 67.7969C449.672 66.1406 447.609 65.3125 445.047 65.3125C441.891 65.3125 439.5 66.4688 437.875 68.7812C436.281 71.0625 435.484 74.7812 435.484 79.9375V81.3438C435.484 86.5625 436.281 90.3125 437.875 92.5938C439.469 94.875 441.891 96.0156 445.141 96.0156ZM490.328 42.8125V55.2812H499V65.2188H490.328V90.5312C490.328 92.4062 490.688 93.75 491.406 94.5625C492.125 95.375 493.5 95.7812 495.531 95.7812C497.031 95.7812 498.359 95.6719 499.516 95.4531V105.719C496.859 106.531 494.125 106.938 491.312 106.938C481.812 106.938 476.969 102.141 476.781 92.5469V65.2188H469.375V55.2812H476.781V42.8125H490.328ZM507.25 99.3438C507.25 97.1875 507.969 95.4375 509.406 94.0938C510.875 92.75 512.703 92.0781 514.891 92.0781C517.109 92.0781 518.938 92.75 520.375 94.0938C521.844 95.4375 522.578 97.1875 522.578 99.3438C522.578 101.469 521.859 103.203 520.422 104.547C518.984 105.859 517.141 106.516 514.891 106.516C512.672 106.516 510.844 105.859 509.406 104.547C507.969 103.203 507.25 101.469 507.25 99.3438ZM553.469 89.4531L562.891 55.2812H577.047L559.938 106H547L529.891 55.2812H544.047L553.469 89.4531ZM595.516 55.2812L595.938 61.1406C599.562 56.6094 604.422 54.3438 610.516 54.3438C615.891 54.3438 619.891 55.9219 622.516 59.0781C625.141 62.2344 626.484 66.9531 626.547 73.2344V106H613V73.5625C613 70.6875 612.375 68.6094 611.125 67.3281C609.875 66.0156 607.797 65.3594 604.891 65.3594C601.078 65.3594 598.219 66.9844 596.312 70.2344V106H582.766V55.2812H595.516Z" fill="#15114E"/>
  
  <path d="M172.517 40C156.5 40 143.517 53.2076 143.517 69.5C143.517 85.7924 156.5 99 172.517 99" stroke="#15114E" stroke-width="14"/>
  
  <ellipse cx="141.017" cy="69.5" rx="10.5" ry="8.5" fill="white"/>
  
  <circle cx="183.15" cy="39.6334" r="11.5" transform="rotate(-22.9872 183.15 39.6334)" stroke="#15114E" stroke-width="10"/>
  
  <circle cx="143.15" cy="69.6334" r="11.5" transform="rotate(-22.9872 143.15 69.6334)" stroke="#00D796" stroke-width="10"/>
  
  <circle cx="184.138" cy="98.6214" r="11.5" transform="rotate(-17.0957 184.138 98.6214)" stroke="#FF4254" stroke-width="10"/>

</svg>