<svg width="629" height="147" viewBox="0 0 629 147" fill="none" xmlns="http://www.w3.org/2000/svg">
<path d="M41.4844 88.0938C41.4844 85.4375 40.5469 83.4062 38.6719 82C36.7969 80.5625 33.4219 79.0625 28.5469 77.5C23.6719 75.9062 19.8125 74.3438 16.9688 72.8125C9.21875 68.625 5.34375 62.9844 5.34375 55.8906C5.34375 52.2031 6.375 48.9219 8.4375 46.0469C10.5312 43.1406 13.5156 40.875 17.3906 39.25C21.2969 37.625 25.6719 36.8125 30.5156 36.8125C35.3906 36.8125 39.7344 37.7031 43.5469 39.4844C47.3594 41.2344 50.3125 43.7188 52.4062 46.9375C54.5312 50.1562 55.5938 53.8125 55.5938 57.9062H41.5312C41.5312 54.7812 40.5469 52.3594 38.5781 50.6406C36.6094 48.8906 33.8438 48.0156 30.2812 48.0156C26.8438 48.0156 24.1719 48.75 22.2656 50.2188C20.3594 51.6562 19.4062 53.5625 19.4062 55.9375C19.4062 58.1562 20.5156 60.0156 22.7344 61.5156C24.9844 63.0156 28.2812 64.4219 32.625 65.7344C40.625 68.1406 46.4531 71.125 50.1094 74.6875C53.7656 78.25 55.5938 82.6875 55.5938 88C55.5938 93.9062 53.3594 98.5469 48.8906 101.922C44.4219 105.266 38.4062 106.938 30.8438 106.938C25.5938 106.938 20.8125 105.984 16.5 104.078C12.1875 102.141 8.89062 99.5 6.60938 96.1562C4.35938 92.8125 3.23438 88.9375 3.23438 84.5312H17.3438C17.3438 92.0625 21.8438 95.8281 30.8438 95.8281C34.1875 95.8281 36.7969 95.1562 38.6719 93.8125C40.5469 92.4375 41.4844 90.5312 41.4844 88.0938ZM65.1562 106V37.75H86.1562C92.1562 37.75 97.5156 39.1094 102.234 41.8281C106.984 44.5156 110.688 48.3594 113.344 53.3594C116 58.3281 117.328 63.9844 117.328 70.3281V73.4688C117.328 79.8125 116.016 85.4531 113.391 90.3906C110.797 95.3281 107.125 99.1562 102.375 101.875C97.625 104.594 92.2656 105.969 86.2969 106H65.1562ZM79.2188 49.1406V94.7031H86.0156C91.5156 94.7031 95.7188 92.9062 98.625 89.3125C101.531 85.7188 103.016 80.5781 103.078 73.8906V70.2812C103.078 63.3438 101.641 58.0938 98.7656 54.5312C95.8906 50.9375 91.6875 49.1406 86.1562 49.1406H79.2188Z" fill="#15114E"/>
<path d="M204.094 80.1719C204.094 75.1406 205.062 70.6562 207 66.7188C208.938 62.7812 211.719 59.7344 215.344 57.5781C219 55.4219 223.234 54.3438 228.047 54.3438C234.891 54.3438 240.469 56.4375 244.781 60.625C249.125 64.8125 251.547 70.5 252.047 77.6875L252.141 81.1562C252.141 88.9375 249.969 95.1875 245.625 99.9062C241.281 104.594 235.453 106.938 228.141 106.938C220.828 106.938 214.984 104.594 210.609 99.9062C206.266 95.2188 204.094 88.8438 204.094 80.7812V80.1719ZM217.641 81.1562C217.641 85.9688 218.547 89.6562 220.359 92.2188C222.172 94.75 224.766 96.0156 228.141 96.0156C231.422 96.0156 233.984 94.7656 235.828 92.2656C237.672 89.7344 238.594 85.7031 238.594 80.1719C238.594 75.4531 237.672 71.7969 235.828 69.2031C233.984 66.6094 231.391 65.3125 228.047 65.3125C224.734 65.3125 222.172 66.6094 220.359 69.2031C218.547 71.7656 217.641 75.75 217.641 81.1562ZM272.953 55.2812L273.375 61.1406C277 56.6094 281.859 54.3438 287.953 54.3438C293.328 54.3438 297.328 55.9219 299.953 59.0781C302.578 62.2344 303.922 66.9531 303.984 73.2344V106H290.438V73.5625C290.438 70.6875 289.812 68.6094 288.562 67.3281C287.312 66.0156 285.234 65.3594 282.328 65.3594C278.516 65.3594 275.656 66.9844 273.75 70.2344V106H260.203V55.2812H272.953ZM326.766 55.2812L327.188 61.1406C330.812 56.6094 335.672 54.3438 341.766 54.3438C347.141 54.3438 351.141 55.9219 353.766 59.0781C356.391 62.2344 357.734 66.9531 357.797 73.2344V106H344.25V73.5625C344.25 70.6875 343.625 68.6094 342.375 67.3281C341.125 66.0156 339.047 65.3594 336.141 65.3594C332.328 65.3594 329.469 66.9844 327.562 70.2344V106H314.016V55.2812H326.766ZM391.453 106.938C384.016 106.938 377.953 104.656 373.266 100.094C368.609 95.5312 366.281 89.4531 366.281 81.8594V80.5469C366.281 75.4531 367.266 70.9062 369.234 66.9062C371.203 62.875 373.984 59.7812 377.578 57.625C381.203 55.4375 385.328 54.3438 389.953 54.3438C396.891 54.3438 402.344 56.5312 406.312 60.9062C410.312 65.2812 412.312 71.4844 412.312 79.5156V85.0469H380.016C380.453 88.3594 381.766 91.0156 383.953 93.0156C386.172 95.0156 388.969 96.0156 392.344 96.0156C397.562 96.0156 401.641 94.125 404.578 90.3438L411.234 97.7969C409.203 100.672 406.453 102.922 402.984 104.547C399.516 106.141 395.672 106.938 391.453 106.938ZM389.906 65.3125C387.219 65.3125 385.031 66.2188 383.344 68.0312C381.688 69.8438 380.625 72.4375 380.156 75.8125H399V74.7344C398.938 71.7344 398.125 69.4219 396.562 67.7969C395 66.1406 392.781 65.3125 389.906 65.3125ZM441.141 96.0156C443.641 96.0156 445.672 95.3281 447.234 93.9531C448.797 92.5781 449.609 90.75 449.672 88.4688H462.375C462.344 91.9062 461.406 95.0625 459.562 97.9375C457.719 100.781 455.188 103 451.969 104.594C448.781 106.156 445.25 106.938 441.375 106.938C434.125 106.938 428.406 104.641 424.219 100.047C420.031 95.4219 417.938 89.0469 417.938 80.9219V80.0312C417.938 72.2188 420.016 65.9844 424.172 61.3281C428.328 56.6719 434.031 54.3438 441.281 54.3438C447.625 54.3438 452.703 56.1562 456.516 59.7812C460.359 63.375 462.312 68.1719 462.375 74.1719H449.672C449.609 71.5469 448.797 69.4219 447.234 67.7969C445.672 66.1406 443.609 65.3125 441.047 65.3125C437.891 65.3125 435.5 66.4688 433.875 68.7812C432.281 71.0625 431.484 74.7812 431.484 79.9375V81.3438C431.484 86.5625 432.281 90.3125 433.875 92.5938C435.469 94.875 437.891 96.0156 441.141 96.0156ZM486.328 42.8125V55.2812H495V65.2188H486.328V90.5312C486.328 92.4062 486.688 93.75 487.406 94.5625C488.125 95.375 489.5 95.7812 491.531 95.7812C493.031 95.7812 494.359 95.6719 495.516 95.4531V105.719C492.859 106.531 490.125 106.938 487.312 106.938C477.812 106.938 472.969 102.141 472.781 92.5469V65.2188H465.375V55.2812H472.781V42.8125H486.328ZM503.25 99.3438C503.25 97.1875 503.969 95.4375 505.406 94.0938C506.875 92.75 508.703 92.0781 510.891 92.0781C513.109 92.0781 514.938 92.75 516.375 94.0938C517.844 95.4375 518.578 97.1875 518.578 99.3438C518.578 101.469 517.859 103.203 516.422 104.547C514.984 105.859 513.141 106.516 510.891 106.516C508.672 106.516 506.844 105.859 505.406 104.547C503.969 103.203 503.25 101.469 503.25 99.3438ZM549.469 89.4531L558.891 55.2812H573.047L555.938 106H543L525.891 55.2812H540.047L549.469 89.4531ZM591.516 55.2812L591.938 61.1406C595.562 56.6094 600.422 54.3438 606.516 54.3438C611.891 54.3438 615.891 55.9219 618.516 59.0781C621.141 62.2344 622.484 66.9531 622.547 73.2344V106H609V73.5625C609 70.6875 608.375 68.6094 607.125 67.3281C605.875 66.0156 603.797 65.3594 600.891 65.3594C597.078 65.3594 594.219 66.9844 592.312 70.2344V106H578.766V55.2812H591.516Z" fill="#15114E"/>
<path d="M170.517 40C154.5 40 141.517 53.2076 141.517 69.5C141.517 85.7924 154.5 99 170.517 99" stroke="#15114E" stroke-width="14"/>
<ellipse cx="139.017" cy="69.5" rx="10.5" ry="8.5" fill="white"/>
<circle cx="181.15" cy="39.6334" r="11.5" transform="rotate(-22.9872 181.15 39.6334)" stroke="#349EFF" stroke-width="10"/>
<circle cx="141.15" cy="69.6334" r="11.5" transform="rotate(-22.9872 141.15 69.6334)" stroke="#00D796" stroke-width="10"/>
<circle cx="182.138" cy="98.6214" r="11.5" transform="rotate(-17.0957 182.138 98.6214)" stroke="#FF3346" stroke-width="10"/>
</svg>
