<svg width="24" height="24" viewBox="0 0 24 24" fill="none" xmlns="http://www.w3.org/2000/svg">
<path d="M1.95703 5.86669C1.95703 4.78666 2.83256 3.91113 3.91259 3.91113H19.557C20.6371 3.91113 21.5126 4.78666 21.5126 5.86669V16.6222C21.5126 17.7023 20.6371 18.5778 19.557 18.5778H15.0732L12.4262 21.2248C12.0444 21.6066 11.4253 21.6066 11.0434 21.2248L8.39647 18.5778H3.91259C2.83256 18.5778 1.95703 17.7023 1.95703 16.6222V5.86669ZM19.557 5.86669H3.91259V16.6222H8.80148C9.0608 16.6222 9.3095 16.7253 9.49287 16.9086L11.7348 19.1506L13.9768 16.9086C14.1601 16.7253 14.4088 16.6222 14.6681 16.6222H19.557V5.86669Z" fill="#B0BDC6"/>
<path d="M13.2015 11.2445C13.2015 12.0545 12.5448 12.7111 11.7348 12.7111C10.9248 12.7111 10.2681 12.0545 10.2681 11.2445C10.2681 10.4344 10.9248 9.7778 11.7348 9.7778C12.5448 9.7778 13.2015 10.4344 13.2015 11.2445Z" fill="#B0BDC6"/>
<path d="M17.1126 11.2445C17.1126 12.0545 16.4559 12.7111 15.6459 12.7111C14.8359 12.7111 14.1793 12.0545 14.1793 11.2445C14.1793 10.4344 14.8359 9.7778 15.6459 9.7778C16.4559 9.7778 17.1126 10.4344 17.1126 11.2445Z" fill="#B0BDC6"/>
<path d="M9.29037 11.2445C9.29037 12.0545 8.63372 12.7111 7.8237 12.7111C7.01368 12.7111 6.35703 12.0545 6.35703 11.2445C6.35703 10.4344 7.01368 9.7778 7.8237 9.7778C8.63372 9.7778 9.29037 10.4344 9.29037 11.2445Z" fill="#B0BDC6"/>
</svg>
