<svg width="24" height="24" viewBox="0 0 24 24" fill="none" xmlns="http://www.w3.org/2000/svg">
<path d="M9.77925 3.91112C6.53918 3.91112 3.91259 6.53772 3.91259 9.77779C3.91259 13.0179 6.53918 15.6445 9.77925 15.6445C13.0193 15.6445 15.6459 13.0179 15.6459 9.77779C15.6459 6.53772 13.0193 3.91112 9.77925 3.91112ZM1.95703 9.77779C1.95703 5.4577 5.45916 1.95557 9.77925 1.95557C14.0993 1.95557 17.6015 5.4577 17.6015 9.77779C17.6015 11.5854 16.9883 13.2498 15.9587 14.5744L21.2262 19.842C21.6081 20.2238 21.6081 20.8429 21.2262 21.2247C20.8444 21.6066 20.2253 21.6066 19.8434 21.2247L14.5759 15.9572C13.2513 16.9869 11.5869 17.6 9.77925 17.6C5.45916 17.6 1.95703 14.0979 1.95703 9.77779Z" fill="#B0BDC6"/>
</svg>
